<svg width="0" height="0" class="hidden">
  <symbol xmlns="http://www.w3.org/2000/svg" viewBox="0 0 100 100" id="rss">
    <path d="M17 2.5c-5.3 0-9.6 4.3-9.6 9.6s4.3 9.6 9.6 9.6c33.8 0 61.2 27.4 61.2 61.2 0 5.3 4.3 9.6 9.6 9.6s9.6-4.3 9.6-9.6c.1-44.3-36-80.4-80.4-80.4z"></path>
    <path d="M17 35.5c-5.3 0-9.6 4.3-9.6 9.6s4.3 9.6 9.6 9.6c15.6 0 28.3 12.6 28.3 28.2 0 5.3 4.3 9.6 9.6 9.6s9.6-4.3 9.6-9.6c0-26.1-21.3-47.4-47.5-47.4zm0 33C9 68.5 2.5 75 2.5 82.9 2.5 91 9 97.5 17 97.5S31.6 91 31.6 82.9C31.5 75 25 68.5 17 68.5z"></path>
  </symbol>
  <symbol xmlns="http://www.w3.org/2000/svg" viewBox="0 0 100 100" id="code">
    <path d="M31.6 33.8l-5.4-5.4c-.8-.8-2.1-.8-2.9 0L3.1 48.5c-.8.8-.8 2.1 0 2.9l20.2 20.2c.8.8 2.1.8 2.9 0l5.4-5.4c.8-.8.8-2.1 0-2.9L18.3 50l13.3-13.3c.8-.8.8-2.1 0-2.9zm65.3 14.7L76.7 28.4c-.8-.8-2.1-.8-2.9 0l-5.4 5.4c-.8.8-.8 2.1 0 2.9L81.7 50 68.4 63.3c-.8.8-.8 2.1 0 2.9l5.4 5.4c.8.8 2.1.8 2.9 0l20.1-20.2c.9-.7.9-2.1.1-2.9zm-36-23h-6.5c-.9 0-1.7.6-2 1.4L37.1 71.7c-.5 1.4.5 2.8 2 2.8h6.5c.9 0 1.7-.6 2-1.4L63 28.3c.4-1.4-.6-2.8-2.1-2.8z"></path>
  </symbol>
  <symbol xmlns="http://www.w3.org/2000/svg" viewBox="0 0 100 100" id="mountain">
    <path d="M97.1 75L66 22.2c-.5-.8-1.4-1.3-2.3-1.3-1 0-1.8.5-2.3 1.3L47.1 46.5l-12.2-20c-.5-.8-1.4-1.3-2.3-1.3-1 0-1.8.5-2.3 1.4L2.8 75.1c-.5.8-.5 1.9 0 2.7.5.8 1.4 1.3 2.3 1.3h89.6c1 0 1.9-.5 2.3-1.4.6-.8.6-1.8.1-2.7zM63.7 28.9l7.9 13.4-2.4.9c-3.7 1.3-7.8 1.3-11.6-.1l-1.8-.7 7.9-13.5zm-31 4.3l6.2 10.2c-3.9 1.6-8.2 1.7-12.1.2l5.9-10.4zM9.8 73.7l14.3-25.3c2.7 1.1 5.6 1.7 8.5 1.7 3.1 0 6.2-.7 9.2-2l2.3 3.7L38 62c-.8 1.3-.3 2.9 1 3.7 1.3.8 2.9.3 3.7-1L53 47.1l2.7 1c2.5.9 5.2 1.4 7.8 1.4 2.5 0 5-.4 7.4-1.3l3.4-1.2L90 73.7H9.8z"></path>
  </symbol>
  <symbol viewBox="0 0 100 100" xmlns="http://www.w3.org/2000/svg" id="grow">
    <path d="M5273.1 2400.1v-2c0-2.8-5-4-9.7-4s-9.7 1.3-9.7 4v2c0 1.8.7 3.6 2 4.9l5 4.9c.3.3.4.6.4 1v6.4c0 .4.2.7.6.8l2.9.9c.5.1 1-.2 1-.8v-7.2c0-.4.2-.7.4-1l5.1-5c1.3-1.3 2-3.1 2-4.9zm-9.7-.1c-4.8 0-7.4-1.3-7.5-1.8.1-.5 2.7-1.8 7.5-1.8s7.3 1.3 7.5 1.8c-.2.5-2.7 1.8-7.5 1.8z"></path>
    <path d="M5268.4 2410.3c-.6 0-1 .4-1 1s.4 1 1 1h4.3c.6 0 1-.4 1-1s-.4-1-1-1zm4.3 3.4h-4.3c-.6 0-1 .4-1 1s.4 1 1 1h4.3c.6 0 1-.4 1-1s-.4-1-1-1zm0 3.3h-4.3c-.6 0-1 .4-1 1s.4 1 1 1h4.3c.6 0 1-.4 1-1 0-.5-.4-1-1-1zM88.3 61.1l-16.3.5c-1.1-1.9-2.9-3.4-5.2-4l-1.1-.3c1.3-3.6 2.6-6.8 4-9.5 2 .6 4.1 1 6.1 1 4.1 0 7.8-1.3 10.6-3.7 9.4-8.4 5-32.5 4.5-35.3-.4-2-2-3.7-4-4.1-2-.5-4.1.3-5.4 2-3.3 4.5-7.8 7.4-12.2 10.2C63 22 56.5 26.2 56.9 34.4c.2 4.2 2.7 8.1 6.9 10.8-1.5 3.1-3 6.7-4.4 10.6l-16.4-4c-3.5-.8-7.3-.4-10.5 1.2L17 60.9 3.9 70.2c-.7.5-1.2 1.3-1.3 2.1s.1 1.7.6 2.4l13 18.3c.6.9 1.6 1.4 2.6 1.4.6 0 1.3-.2 1.9-.6l11.3-8 16 4.8c5.7 1.7 11.9 1.4 17.3-1L92 78.3c3.5-1.5 5.7-5 5.5-8.8-.3-4.8-4.4-8.6-9.2-8.4zm-25-27c-.2-4.3 3.3-6.8 9.4-10.8 4-2.6 8.4-5.4 12.2-9.7 1.6 10.6 1.2 22.9-2.9 26.6-2 1.8-5.6 2.4-9.2 1.7 3.3-5.6 5.9-8.6 5.9-8.6 1.2-1.3 1.1-3.4-.2-4.6s-3.4-1.1-4.6.2c-.2.2-3.4 3.8-7.2 10.4-1.8-1.3-3.3-3.1-3.4-5.2zM19.5 86.7l-9.3-13 7.3-5.2 9.3 13.1zm70-14.3L62.7 83.7c-4.1 1.7-8.7 2-12.9.7l-16.5-4.9L23.1 65l12.3-6.2c1.9-.9 4.1-1.2 6.1-.7l23.8 5.8c.8.2 1.3.9 1.2 1.7S65.8 67 65 67l-6.1.4c-2.3.1-4.7-.1-7-.6l-6.8-1.5c-1.8-.4-3.5.7-3.9 2.5-.4 1.7.7 3.5 2.5 3.9l6.8 1.5c2.9.6 5.8.9 8.7.7l6.1-.4c3.4-.2 6.2-2.4 7.2-5.5l15.8-.5c1.4-.1 2.5 1 2.6 2.4.2 1.1-.4 2.1-1.4 2.5z"></path>
  </symbol>
  <symbol xmlns="http://www.w3.org/2000/svg" viewBox="0 0 100 100" id="book">
    <path d="M94.4 31.1L58.7 9.7c-2.3-1.4-5.2-1.2-7.2.5L4.8 47.9c-1.5 1.2-2.3 3-2.3 4.9V64c0 2.2 1.2 4.3 3 5.4L39.8 90c1.4.9 2.9 1.3 4.5 1.3 1.9 0 3.9-.7 5.5-1.9l45.4-36.7c1.5-1.2 2.4-3 2.4-4.9V36.5c-.1-2.2-1.3-4.3-3.2-5.4zm-46.9-2.9l6.4-5.3c.9-.7 2.1-.8 3-.2L75.7 34c1.6 1 1.7 3.2.3 4.3l-6.5 5.3c-.9.7-2.1.8-3 .2L47.8 32.5c-1.6-1-1.7-3.1-.3-4.3zm44.9 19.6c0 .4-.2.7-.5 1L46.6 85.4c-1.2 1-2.8 1.1-4.1.3L8.2 65c-.4-.2-.6-.6-.6-1.1v-8.5l33.7 20.3c1 .6 2.1.9 3.2.9 1.4 0 2.8-.5 3.9-1.4l44-35.5v8.1z"></path>
  </symbol>
  <symbol xmlns="http://www.w3.org/2000/svg" viewBox="0 0 100 100" id="network">
    <path d="M39.6 54.4c0 5.5 4.5 10 10 10s10-4.5 10-10-4.5-10-10-10-10 4.5-10 10z"></path>
    <circle cx="21" cy="86.8" r="6.3"></circle>
    <circle cx="8.8" cy="37.9" r="6.3"></circle>
    <circle cx="79.9" cy="86.8" r="6.3"></circle>
    <circle cx="91.2" cy="44.2" r="6.3"></circle>
    <path d="M36.5 51.7c.3-1.7 1-3.2 1.9-4.6l-20-8.1c-.2 1.7-.9 3.3-1.8 4.6l19.9 8.1zm15.3-10.4l.2-18.8c-.8.2-1.6.3-2.4.3-.9 0-1.7-.2-2.5-.4L47 41.2c.8-.2 1.7-.3 2.6-.3.7.2 1.5.3 2.2.4zm9.8 7.5c.7 1.5 1.1 3.1 1.2 4.8l19.9-4.8c-.7-1.4-1.2-2.9-1.2-4.6V44l-19.9 4.8zm20.6-8.2c.6-1.6 1.7-2.9 3-3.9L58.5 16.8c-.6 1.6-1.7 2.9-3 3.9l26.7 19.9zM60.4 62.2c-1 1.3-2.2 2.5-3.6 3.4l15 15.9c.9-1.4 2.2-2.5 3.7-3.3l-15.1-16zm-21.5.2L25.2 78.1c1.5.7 2.8 1.8 3.8 3.2l13.6-15.5c-1.4-.9-2.7-2-3.7-3.4zm-8.5 21.9c.2.8.4 1.6.4 2.5s-.1 1.7-.4 2.5h40.2c-.2-.8-.4-1.6-.4-2.5s.1-1.7.4-2.5H30.4zm49.5-7.2c1.7 0 3.3.5 4.8 1.3l6.5-24.5c-1.7 0-3.3-.5-4.8-1.3l-6.5 24.5zM42.8 20.2a8.62 8.62 0 0 1-2.5-4.2L15.5 31c1.2 1.1 2.1 2.6 2.5 4.2l24.8-15zM21 77.1h.1l-7.7-30.8c-1.4.8-3 1.2-4.7 1.2h-.1l7.7 30.8c1.5-.7 3.1-1.2 4.7-1.2z"></path>
    <circle cx="49.5" cy="13.2" r="6.3"></circle>
  </symbol>
  <symbol xmlns="http://www.w3.org/2000/svg" viewBox="0 0 100 100" id="more">
    <path d="M5273.1 2400.1v-2c0-2.8-5-4-9.7-4s-9.7 1.3-9.7 4v2c0 1.8.7 3.6 2 4.9l5 4.9c.3.3.4.6.4 1v6.4c0 .4.2.7.6.8l2.9.9c.5.1 1-.2 1-.8v-7.2c0-.4.2-.7.4-1l5.1-5c1.3-1.3 2-3.1 2-4.9zm-9.7-.1c-4.8 0-7.4-1.3-7.5-1.8.1-.5 2.7-1.8 7.5-1.8s7.3 1.3 7.5 1.8c-.2.5-2.7 1.8-7.5 1.8z"></path>
    <path d="M5268.4 2410.3c-.6 0-1 .4-1 1s.4 1 1 1h4.3c.6 0 1-.4 1-1s-.4-1-1-1h-4.3zm4.3 3.4h-4.3c-.6 0-1 .4-1 1s.4 1 1 1h4.3c.6 0 1-.4 1-1s-.4-1-1-1zm0 3.3h-4.3c-.6 0-1 .4-1 1s.4 1 1 1h4.3c.6 0 1-.4 1-1 0-.5-.4-1-1-1z"></path>
    <circle cx="15.7" cy="50" r="13.2"></circle>
    <circle cx="50" cy="50" r="13.2"></circle>
    <circle cx="84.3" cy="50" r="13.2"></circle>
  </symbol>
  <symbol xmlns="http://www.w3.org/2000/svg" viewBox="-949 951 100 100" id="email">
    <path d="M-866.5 968h-64.9c-8.3 0-15 6.8-15 15.1v36c0 8.3 6.8 15.1 15 15.1h64.9c8.3 0 15-6.8 15-15.1v-36c0-8.4-6.8-15.1-15-15.1zm-65 7.7h64.9c2.6 0 5 1.4 6.2 3.5l-32.9 20.5c-1.8 1.1-3.8 1.7-5.8 1.7s-4-.6-5.8-1.7l-32.9-20.5c1.4-2.1 3.7-3.5 6.3-3.5zm65 50.6h-64.9c-4 0-7.3-3.3-7.3-7.3v-31.3l29.8 18.7c3 1.9 6.4 2.8 9.9 2.8s6.9-1 9.9-2.8l29.9-18.7v31.3c0 4-3.3 7.3-7.3 7.3z"></path>
  </symbol>
  <symbol xmlns="http://www.w3.org/2000/svg" viewBox="0 0 100 100" id="home">
    <path d="M94.1 37.9L56.8 8.8c-4-3.1-9.6-3.1-13.5 0L5.9 37.9c-2.2 1.7-3.4 4.3-3.4 7v3.7c0 3.8 3.1 6.9 6.9 6.9h3.5v29.2c0 4.8 3.9 8.7 8.7 8.7h18.5c2.1 0 3.9-1.7 3.9-3.9v-24h12v24c0 2.1 1.7 3.9 3.9 3.9h18.5c4.8 0 8.7-3.9 8.7-8.7V55.5h3.5c3.8 0 6.9-3.1 6.9-6.9v-3.7c0-2.7-1.3-5.3-3.4-7zm-4.3 9.9h-6.5c-2.1 0-3.9 1.7-3.9 3.9v33.1c0 .6-.5 1-1 1H63.7v-24c0-2.1-1.7-3.9-3.9-3.9H40.2c-2.1 0-3.9 1.7-3.9 3.9v24H21.6c-.6 0-1-.5-1-1V51.7c0-2.1-1.7-3.9-3.9-3.9h-6.5v-2.9c0-.4.2-.7.5-.9L48 14.9c1.2-.9 2.9-.9 4.1 0L89.3 44c.3.2.5.6.5.9v2.9z"></path>
  </symbol>
  <symbol xmlns="http://www.w3.org/2000/svg" viewBox="0 0 100 100" id="journal">
    <path d="M5273.1 2400.1v-2c0-2.8-5-4-9.7-4s-9.7 1.3-9.7 4v2c0 1.8.7 3.6 2 4.9l5 4.9c.3.3.4.6.4 1v6.4c0 .4.2.7.6.8l2.9.9c.5.1 1-.2 1-.8v-7.2c0-.4.2-.7.4-1l5.1-5c1.3-1.3 2-3.1 2-4.9zm-9.7-.1c-4.8 0-7.4-1.3-7.5-1.8.1-.5 2.7-1.8 7.5-1.8s7.3 1.3 7.5 1.8c-.2.5-2.7 1.8-7.5 1.8z"></path>
    <path d="M5268.4 2410.3c-.6 0-1 .4-1 1s.4 1 1 1h4.3c.6 0 1-.4 1-1s-.4-1-1-1h-4.3zm4.3 3.4h-4.3c-.6 0-1 .4-1 1s.4 1 1 1h4.3c.6 0 1-.4 1-1s-.4-1-1-1zm0 3.3h-4.3c-.6 0-1 .4-1 1s.4 1 1 1h4.3c.6 0 1-.4 1-1 0-.5-.4-1-1-1zM87.4 2.5H17.5c-2.7 0-5 2.2-5 5v11.7h-2.1c-1.6 0-2.9 1.3-2.9 2.9S8.8 25 10.4 25h2.1v12.8h-2.1c-1.6 0-2.9 1.3-2.9 2.9s1.3 2.9 2.9 2.9h2.1v12.8h-2.1c-1.6 0-2.9 1.3-2.9 2.9s1.3 2.9 2.9 2.9h2.1V75h-2.1c-1.6 0-2.9 1.3-2.9 2.9s1.3 2.9 2.9 2.9h2.1v11.7c0 2.7 2.2 5 5 5h69.9c2.7 0 5-2.2 5-5v-85c0-2.8-2.2-5-5-5zm-69 78.4h2.1c1.6 0 2.9-1.3 2.9-2.9s-1.3-2.9-2.9-2.9h-2.1V62.2h2.1c1.6 0 2.9-1.3 2.9-2.9s-1.3-2.9-2.9-2.9h-2.1V43.6h2.1c1.6 0 2.9-1.3 2.9-2.9s-1.3-2.9-2.9-2.9h-2.1V24.9h2.1c1.6 0 2.9-1.3 2.9-2.9s-1.3-2.9-2.9-2.9h-2.1V8.3h9.7v83.4h-9.7V80.9zm68.2 10.8H33.9V8.3h52.7v83.4z"></path>
    <path d="M46.8 37.8l10 10c.9.9 2.1 1.4 3.4 1.4 1.3 0 2.5-.5 3.4-1.4l10.2-10.2c2-2 3-4.7 2.9-7.5-.1-2.8-1.4-5.4-3.6-7.2-3.7-3-9.2-2.9-12.9.3-1.9-1.7-4.5-2.7-7.1-2.5-2.8.1-5.4 1.4-7.2 3.6-3.1 3.9-2.8 9.8.9 13.5zm3.6-9.8c.8-.9 1.8-1.4 3-1.5h.2c1.1 0 2.1.4 2.9 1.2l1.7 1.7c1.1 1.1 3 1.1 4.1 0l1.5-1.5c1.6-1.6 4.1-1.8 5.7-.5.9.8 1.4 1.8 1.5 3 .1 1.2-.4 2.3-1.2 3.1L60.2 43l-9.3-9.3c-1.6-1.6-1.8-4.1-.5-5.7zm22.1 30H47.9c-1.6 0-2.9 1.3-2.9 2.9s1.3 2.9 2.9 2.9h24.6c1.6 0 2.9-1.3 2.9-2.9S74.1 58 72.5 58zm0 15.5H47.9c-1.6 0-2.9 1.3-2.9 2.9s1.3 2.9 2.9 2.9h24.6c1.6 0 2.9-1.3 2.9-2.9s-1.3-2.9-2.9-2.9z"></path>
  </symbol>
  <symbol xmlns="http://www.w3.org/2000/svg" viewBox="0 0 100 100" id="peer-to-peer">
    <path d="M5273.1 2400.1v-2c0-2.8-5-4-9.7-4s-9.7 1.3-9.7 4v2c0 1.8.7 3.6 2 4.9l5 4.9c.3.3.4.6.4 1v6.4c0 .4.2.7.6.8l2.9.9c.5.1 1-.2 1-.8v-7.2c0-.4.2-.7.4-1l5.1-5c1.3-1.3 2-3.1 2-4.9zm-9.7-.1c-4.8 0-7.4-1.3-7.5-1.8.1-.5 2.7-1.8 7.5-1.8s7.3 1.3 7.5 1.8c-.2.5-2.7 1.8-7.5 1.8z"></path>
    <path d="M5268.4 2410.3c-.6 0-1 .4-1 1s.4 1 1 1h4.3c.6 0 1-.4 1-1s-.4-1-1-1h-4.3zm4.3 3.4h-4.3c-.6 0-1 .4-1 1s.4 1 1 1h4.3c.6 0 1-.4 1-1s-.4-1-1-1zm0 3.3h-4.3c-.6 0-1 .4-1 1s.4 1 1 1h4.3c.6 0 1-.4 1-1 0-.5-.4-1-1-1z"></path>
    <circle cx="17.3" cy="30.1" r="9.7"></circle>
    <path d="M32.7 60.2c.7 0 1.4-.2 2-.5l10.6-5.4c2.2-1.1 3-3.8 1.9-5.9-1.1-2.2-3.8-3-5.9-1.9L33 50.6s-4.6-3.2-6-4.2c-.9-.7-3.6-2.8-6.3-3.8-2.9-1-10.5-1.6-12.5 3.3C6 51.1 6.4 64.6 6.4 74.2c0 .8.5 1.5 1.4 1.5h15.9c1 0 1.3-.5 1.4-1.3.1-.5 1-11.4.9-16.2v-1.7l4.2 2.8c.7.6 1.6.9 2.5.9z"></path>
    <circle cx="82.7" cy="30.1" r="9.7"></circle>
    <path d="M91.9 45.9c-2.1-4.9-9.7-4.3-12.5-3.3-2.7.9-5.4 3.1-6.3 3.8-1.5 1.1-6 4.2-6 4.2l-8.3-4.2c-2.2-1.1-4.8-.2-5.9 1.9-1.1 2.2-.2 4.8 1.9 5.9l10.6 5.4c.6.3 1.3.5 2 .5.9 0 1.7-.3 2.5-.8l4.2-2.8v1.7c-.1 4.8.8 15.7.8 16.2.1.8.5 1.3 1.4 1.3h15.9c.8 0 1.4-.6 1.4-1.5.1-9.6.5-23-1.7-28.3zM28.3 19.5c1.3.8 3.1.5 4-.7 3.9-5 9.8-8.1 16.3-8.6 5-.3 9.9 1 14 3.6l-3.5.2c-1.7.1-3 1.6-2.9 3.4.1 1.7 1.6 3 3.4 2.9l10.8-.7c1.7-.1 3-1.6 2.9-3.4l-.8-10.8c-.1-1.7-1.6-3-3.4-2.9-1.7.1-3 1.6-2.9 3.4l.2 3.1c-5.3-3.6-11.7-5.4-18.3-5-8.3.6-15.8 4.6-20.8 10.9-1.1 1.4-.7 3.6 1 4.6zm43.4 61c-1.3-.8-3.1-.5-4 .7-3.9 5-9.8 8.1-16.3 8.6-5 .3-9.9-1-14-3.6l3.5-.2c1.7-.1 3-1.6 2.9-3.4-.1-1.7-1.6-3-3.4-2.9l-10.8.7c-1.7.1-3 1.6-2.9 3.4l.7 10.8c.1 1.7 1.6 3 3.4 2.9 1.7-.1 3-1.6 2.9-3.4l-.2-3.1c5.3 3.6 11.7 5.4 18.3 5 8.3-.6 15.8-4.6 20.8-10.9 1.2-1.4.8-3.6-.9-4.6z"></path>
  </symbol>
  <symbol xmlns="http://www.w3.org/2000/svg" viewBox="0 0 100 100" id="success">
    <path d="M5273.1 2400.1v-2c0-2.8-5-4-9.7-4s-9.7 1.3-9.7 4v2c0 1.8.7 3.6 2 4.9l5 4.9c.3.3.4.6.4 1v6.4c0 .4.2.7.6.8l2.9.9c.5.1 1-.2 1-.8v-7.2c0-.4.2-.7.4-1l5.1-5c1.3-1.3 2-3.1 2-4.9zm-9.7-.1c-4.8 0-7.4-1.3-7.5-1.8.1-.5 2.7-1.8 7.5-1.8s7.3 1.3 7.5 1.8c-.2.5-2.7 1.8-7.5 1.8z"/>
    <path d="M5268.4 2410.3c-.6 0-1 .4-1 1s.4 1 1 1h4.3c.6 0 1-.4 1-1s-.4-1-1-1h-4.3zM5272.7 2413.7h-4.3c-.6 0-1 .4-1 1s.4 1 1 1h4.3c.6 0 1-.4 1-1s-.4-1-1-1zM5272.7 2417h-4.3c-.6 0-1 .4-1 1s.4 1 1 1h4.3c.6 0 1-.4 1-1 0-.5-.4-1-1-1zM91 2.5H9C5.4 2.5 2.5 5.4 2.5 9v82c0 3.6 2.9 6.5 6.5 6.5h82c3.6 0 6.5-2.9 6.5-6.5V9c0-3.6-2.9-6.5-6.5-6.5zM72.9 41.6L49.1 67.2c-1.2 1.3-3 2.1-4.8 2.1s-3.5-.7-4.8-2.1L27.1 53.7c-2.4-2.6-2.3-6.7.3-9.2 2.6-2.4 6.7-2.3 9.2.3l7.8 8.4 19-20.5c2.4-2.6 6.6-2.8 9.2-.3 2.6 2.5 2.8 6.6.3 9.2z"/>
  </symbol>
  <symbol xmlns="http://www.w3.org/2000/svg" viewBox="0 0 100 100" id="detour">
    <path d="M5273.1 2400.1v-2c0-2.8-5-4-9.7-4s-9.7 1.3-9.7 4v2c0 1.8.7 3.6 2 4.9l5 4.9c.3.3.4.6.4 1v6.4c0 .4.2.7.6.8l2.9.9c.5.1 1-.2 1-.8v-7.2c0-.4.2-.7.4-1l5.1-5c1.3-1.3 2-3.1 2-4.9zm-9.7-.1c-4.8 0-7.4-1.3-7.5-1.8.1-.5 2.7-1.8 7.5-1.8s7.3 1.3 7.5 1.8c-.2.5-2.7 1.8-7.5 1.8z"/>
    <path d="M5268.4 2410.3c-.6 0-1 .4-1 1s.4 1 1 1h4.3c.6 0 1-.4 1-1s-.4-1-1-1h-4.3zM5272.7 2413.7h-4.3c-.6 0-1 .4-1 1s.4 1 1 1h4.3c.6 0 1-.4 1-1s-.4-1-1-1zM5272.7 2417h-4.3c-.6 0-1 .4-1 1s.4 1 1 1h4.3c.6 0 1-.4 1-1 0-.5-.4-1-1-1z"/>
    <g>
      <path d="M96.6 42.9c-1.2 1.2-3.1 1.2-4.3 0L89.4 40v10c0 12.8-10.4 23.2-23.2 23.2S42.9 62.8 42.9 50c0-9.5-7.7-17.2-17.2-17.2S8.6 40.5 8.6 50v12.6c0 1.7-1.4 3-3 3s-3-1.4-3-3V50c0-12.8 10.4-23.2 23.2-23.2S49 37.2 49 50c0 9.5 7.7 17.2 17.2 17.2S83.4 59.5 83.4 50V40l-2.9 2.9c-1.2 1.2-3.1 1.2-4.3 0-1.2-1.2-1.2-3.1 0-4.3l8.1-8.1c.6-.6 1.4-.9 2.1-.9.8 0 1.6.3 2.1.9l8.1 8.1c1.2 1.2 1.2 3.2 0 4.3z"/>
      <circle cx="66.2" cy="50" r="6.8"/>
      <circle cx="25.7" cy="50" r="6.8"/>
    </g>
  </symbol>

</svg>
